<svg width="24" height="24" viewBox="0 0 24 24" fill="none" xmlns="http://www.w3.org/2000/svg">
<path d="M3.5 16L7.93934 11.5606C8.52513 10.9748 9.47487 10.9748 10.0607 11.5606L13.5 15M13.5 15L14.5 16M13.5 15L15.4393 13.0606C16.0251 12.4748 16.9749 12.4748 17.5607 13.0606L20.5 16M5.56642 20.6962C10.3059 21.1003 13.6523 21.1012 18.453 20.6942C19.6454 20.5931 20.5904 19.6431 20.6891 18.4502C21.0864 13.6487 21.1253 10.2867 20.704 5.52515C20.5996 4.34542 19.661 3.41158 18.4814 3.30944C13.6947 2.89501 10.3443 2.89622 5.51901 3.31201C4.34515 3.41315 3.40777 4.3377 3.29918 5.51122C2.8542 10.3199 2.94055 13.6903 3.32857 18.4432C3.42621 19.6391 4.37117 20.5943 5.56642 20.6962ZM15.5 8.49997C15.5 9.3284 14.8284 9.99997 14 9.99997C13.1716 9.99997 12.5 9.3284 12.5 8.49997C12.5 7.67154 13.1716 6.99997 14 6.99997C14.8284 6.99997 15.5 7.67154 15.5 8.49997Z" stroke="white" stroke-width="1.5" stroke-linecap="round"/>
</svg>
